<?xml version="1.0" encoding="UTF-8" standalone="no"?>
<svg width="548px" height="109px" viewBox="0 0 548 109" version="1.1" xmlns="http://www.w3.org/2000/svg" xmlns:xlink="http://www.w3.org/1999/xlink" xmlns:sketch="http://www.bohemiancoding.com/sketch/ns">
    <!-- Generator: Sketch 3.3.2 (12043) - http://www.bohemiancoding.com/sketch -->
    <title>Slice 1</title>
    <desc>Created with Sketch.</desc>
    <defs></defs>
    <g id="Page-1" stroke="none" stroke-width="1" fill="none" fill-rule="evenodd" sketch:type="MSPage">
        <g id="frantic_logo" sketch:type="MSLayerGroup" fill="#000000">
            <g id="Group" sketch:type="MSShapeGroup">
                <path d="M0.5,2.5 L62.5,2.5 L62.5,25.9 L27.2,25.9 L27.2,43.7 L54.3,43.7 L54.3,67.2 L27.2,67.2 L27.2,107 L0.5,107 L0.5,2.5 L0.5,2.5 Z" id="Shape"></path>
                <path d="M303,65.2 L303,2.2 L328.6,2.2 L328.6,107 L305.4,107 L265.9,44.7 L265.9,107 L240.3,107 L240.3,2.2 L263.4,2.2 L303,65.2 L303,65.2 Z" id="Shape"></path>
                <path d="M357,25.8 L336.3,25.8 L336.3,2.3 L404.3,2.3 L404.3,25.8 L383.8,25.8 L383.8,107 L357,107 L357,25.8 L357,25.8 Z" id="Shape"></path>
                <path d="M412.2,2.2 L439,2.2 L439,107 L412.2,107 L412.2,2.2 L412.2,2.2 Z" id="Shape"></path>
                <path d="M225.5,2.2 L199,2.2 L198.8,2.2 L140.6,85.1 L131.2,68.5 C136.2,66.4 141.3,62.8 144.8,57.3 C147.8,52.6 150,46.4 150,38.3 C150,26.8 146,16.5 137.3,9.7 C131.5,5.2 121.3,2.2 104.9,2.2 L70.6,2.2 L70.6,107 L97.4,107 L97.4,25.7 L107.3,25.7 C111,25.7 115.2,26.7 118.2,28.5 C121.7,30.8 124.4,35.2 124.4,40.7 C124.4,46.5 121.7,51.5 118.5,53.6 C115,55.9 109.2,56.4 102.4,56.4 L98,56.4 L125.3,106.9 L152.9,106.9 L155.9,106.9 L198.9,44.2 L198.9,107 L225.7,107 L225.7,2.2 L225.5,2.2 L225.5,2.2 Z" id="Shape"></path>
                <path d="M547.4,82.8 C537.8,99 520.3,109 500.5,109 C467.7,109 445.3,82.8 445.3,54.5 C445.3,27.7 466,0.3 500.2,0.3 C521.5,0.3 536.3,10.9 544.9,22.9 L523.1,37.5 C519.1,30.7 511.7,23.9 500,23.9 C482,23.9 472,39.6 472,54.5 C472,70.4 482.8,85.6 500.2,85.6 C516,85.6 525.1,68.6 525.1,68.6 L547.4,82.8 L547.4,82.8 Z" id="Shape"></path>
            </g>
        </g>
    </g>
</svg>